<svg width="20" height="21" viewBox="0 0 20 21" fill="none" xmlns="http://www.w3.org/2000/svg">
<path fill-rule="evenodd" clip-rule="evenodd" d="M8 4.40329C6.93913 4.40329 5.92172 4.82472 5.17157 5.57487C4.42143 6.32501 4 7.34243 4 8.40329C4 9.46416 4.42143 10.4816 5.17157 11.2317C5.92172 11.9819 6.93913 12.4033 8 12.4033C9.06087 12.4033 10.0783 11.9819 10.8284 11.2317C11.5786 10.4816 12 9.46416 12 8.40329C12 7.34243 11.5786 6.32501 10.8284 5.57487C10.0783 4.82472 9.06087 4.40329 8 4.40329ZM2 8.40329C1.99988 7.459 2.22264 6.52801 2.65017 5.68603C3.0777 4.84406 3.69792 4.11489 4.4604 3.55782C5.22287 3.00075 6.10606 2.63151 7.03815 2.48013C7.97023 2.32875 8.92488 2.3995 9.82446 2.68664C10.724 2.97378 11.5432 3.46919 12.2152 4.13259C12.8872 4.79598 13.3931 5.60863 13.6919 6.50443C13.9906 7.40022 14.0737 8.35389 13.9343 9.28785C13.795 10.2218 13.4372 11.1097 12.89 11.8793L17.707 16.6963C17.8892 16.8849 17.99 17.1375 17.9877 17.3997C17.9854 17.6619 17.8802 17.9127 17.6948 18.0981C17.5094 18.2835 17.2586 18.3887 16.9964 18.391C16.7342 18.3932 16.4816 18.2925 16.293 18.1103L11.477 13.2943C10.5794 13.9326 9.52335 14.3115 8.42468 14.3894C7.326 14.4674 6.22707 14.2414 5.2483 13.7363C4.26953 13.2311 3.44869 12.4663 2.87572 11.5256C2.30276 10.585 1.99979 9.50473 2 8.40329Z" fill="#7A7A7A"/>
</svg>
