<svg width="16" height="18" viewBox="0 0 16 18" fill="none" xmlns="http://www.w3.org/2000/svg">
<path d="M0.923828 17.5312V15.4805L2.74023 15.1289V2.88281L0.923828 2.53125V0.46875H8.50586C10.5137 0.46875 12.0801 0.859375 13.2051 1.64062C14.3301 2.42188 14.8926 3.58984 14.8926 5.14453C14.8926 5.93359 14.6816 6.64062 14.2598 7.26562C13.8457 7.88281 13.2402 8.34766 12.4434 8.66016C13.123 8.80859 13.6895 9.07031 14.1426 9.44531C14.6035 9.82031 14.9473 10.2773 15.1738 10.8164C15.4004 11.3477 15.5137 11.9297 15.5137 12.5625C15.5137 14.1953 14.9746 15.4336 13.8965 16.2773C12.8184 17.1133 11.291 17.5312 9.31445 17.5312H0.923828ZM6.16211 14.9062H9.31445C10.2207 14.9062 10.9121 14.7109 11.3887 14.3203C11.8652 13.9219 12.1035 13.3359 12.1035 12.5625C12.1035 12 12.0137 11.5273 11.834 11.1445C11.6543 10.7617 11.377 10.4727 11.002 10.2773C10.6348 10.082 10.1582 9.98438 9.57227 9.98438H6.16211V14.9062ZM6.16211 7.61719H8.62305C9.53711 7.61719 10.2402 7.42969 10.7324 7.05469C11.2246 6.67969 11.4707 6.13281 11.4707 5.41406C11.4707 4.625 11.2207 4.04297 10.7207 3.66797C10.2285 3.29297 9.49023 3.10547 8.50586 3.10547H6.16211V7.61719Z" fill="#001019"/>
</svg>
