<svg width="158" height="157" viewBox="0 0 158 157" fill="none" xmlns="http://www.w3.org/2000/svg">
<path d="M78.9998 0.0398209C35.821 0.0398209 0.741211 35.1196 0.741211 78.2985C0.741211 116.376 28.0133 148.144 64.104 155.112C65.0705 155.412 66.1213 155.287 66.9898 154.766C67.8595 154.245 68.4649 153.379 68.656 152.384C68.847 151.389 68.6051 150.359 67.991 149.554C67.3756 148.749 66.4476 148.242 65.4377 148.164C32.6447 141.831 7.85535 112.986 7.85535 78.2969C7.85535 38.9643 39.667 7.15265 78.9996 7.15265C118.332 7.15265 150.144 38.9643 150.144 78.2969C150.144 117.629 118.332 149.441 78.9996 149.441C77.0604 149.477 75.5084 151.059 75.5084 152.998C75.5084 154.937 77.0605 156.519 78.9996 156.555C122.178 156.555 157.258 121.475 157.258 78.2962C157.258 35.1174 122.178 0.0375977 78.9996 0.0375977L78.9998 0.0398209ZM116.684 48.005C115.755 48.0422 114.878 48.4405 114.239 49.1166L68.3285 96.3036L48.2086 75.628C47.5548 74.937 46.6529 74.535 45.7025 74.5139C44.7522 74.4928 43.8328 74.8526 43.1492 75.5139C42.4656 76.1751 42.0748 77.082 42.0649 78.0324C42.055 78.984 42.4259 79.8983 43.0946 80.5745L65.7725 103.863C66.4424 104.555 67.3642 104.947 68.3282 104.947C69.2922 104.947 70.2153 104.555 70.8852 103.863L119.352 54.0618C120.381 53.0234 120.67 51.4627 120.081 50.1251C119.491 48.7877 118.144 47.9465 116.684 48.0036L116.684 48.005Z" fill="#00A83F"/>
</svg>
