<svg width="7" height="19" viewBox="0 0 7 19" fill="none" xmlns="http://www.w3.org/2000/svg">
<path d="M0.898945 16.0313C0.898945 15.8233 0.906945 15.6073 0.922945 15.3833C0.954945 15.1593 0.994945 14.8953 1.04295 14.5913C1.10695 14.2713 1.17895 13.8873 1.25895 13.4393L2.21895 8.08729C2.26695 7.86329 2.23495 7.68729 2.12295 7.55929C2.02695 7.43129 1.85895 7.32729 1.61895 7.24729C1.39495 7.16729 1.10695 7.11129 0.754945 7.07929L0.418945 7.03129L0.658945 5.75929H5.48295L4.04295 13.9193C3.99495 14.2553 3.94695 14.5513 3.89895 14.8073C3.86695 15.0633 3.83495 15.2793 3.80295 15.4553C3.78695 15.6313 3.77895 15.7833 3.77895 15.9113C3.77895 16.1193 3.84295 16.2793 3.97095 16.3913C4.09895 16.4873 4.28295 16.5353 4.52295 16.5353C4.74695 16.5353 4.96295 16.5113 5.17095 16.4633C5.37895 16.3993 5.57095 16.3353 5.74695 16.2713C5.92295 16.1913 6.05095 16.1353 6.13095 16.1033L5.86695 17.4953C5.70695 17.6073 5.49895 17.7193 5.24295 17.8313C5.00295 17.9433 4.73095 18.0313 4.42695 18.0953C4.12295 18.1593 3.79495 18.1913 3.44295 18.1913C2.96295 18.1913 2.52295 18.1113 2.12295 17.9513C1.73895 17.7913 1.43495 17.5513 1.21095 17.2313C1.00295 16.9113 0.898945 16.5113 0.898945 16.0313ZM2.50695 1.70329C2.50695 1.19129 2.67495 0.791289 3.01095 0.503289C3.34695 0.215289 3.78695 0.0712891 4.33095 0.0712891C4.85895 0.0712891 5.28295 0.215289 5.60295 0.503289C5.92295 0.77529 6.08295 1.15929 6.08295 1.65529C6.08295 2.16729 5.91495 2.57529 5.57895 2.87929C5.24295 3.16729 4.80295 3.31129 4.25895 3.31129C3.74695 3.31129 3.32295 3.16729 2.98695 2.87929C2.66695 2.59129 2.50695 2.19929 2.50695 1.70329Z" fill="#001019"/>
</svg>
