<svg width="21" height="20" viewBox="0 0 21 20" fill="none" xmlns="http://www.w3.org/2000/svg">
<path d="M11.742 8.47667C11.1169 7.85176 10.2692 7.50071 9.38536 7.50071C8.50148 7.50071 7.65379 7.85176 7.02869 8.47667L3.69536 11.81C3.37699 12.1175 3.12305 12.4853 2.94836 12.892C2.77366 13.2987 2.68171 13.7361 2.67786 14.1787C2.67401 14.6213 2.75835 15.0602 2.92596 15.4698C3.09356 15.8795 3.34107 16.2517 3.65404 16.5647C3.96702 16.8776 4.33919 17.1251 4.74885 17.2927C5.1585 17.4603 5.59743 17.5447 6.04003 17.5408C6.48263 17.537 6.92003 17.445 7.32671 17.2703C7.73339 17.0956 8.10121 16.8417 8.4087 16.5233L9.32703 15.6058M8.69536 11.5233C9.32045 12.1482 10.1681 12.4993 11.052 12.4993C11.9359 12.4993 12.7836 12.1482 13.4087 11.5233L16.742 8.19C17.3492 7.56133 17.6852 6.71932 17.6776 5.84533C17.67 4.97134 17.3194 4.1353 16.7014 3.51727C16.0834 2.89925 15.2474 2.54868 14.3734 2.54109C13.4994 2.53349 12.6574 2.86947 12.0287 3.47667L11.112 4.39333" stroke="#001019" stroke-width="2" stroke-linecap="round" stroke-linejoin="round"/>
</svg>
