<svg width="21" height="21" viewBox="0 0 21 21" fill="none" xmlns="http://www.w3.org/2000/svg">
<path fill-rule="evenodd" clip-rule="evenodd" d="M4.21875 3.53125C3.68832 3.53125 3.17961 3.74196 2.80454 4.11704C2.42946 4.49211 2.21875 5.00082 2.21875 5.53125V15.5312C2.21875 16.0617 2.42946 16.5704 2.80454 16.9455C3.17961 17.3205 3.68832 17.5312 4.21875 17.5312H16.2188C16.7492 17.5312 17.2579 17.3205 17.633 16.9455C18.008 16.5704 18.2188 16.0617 18.2188 15.5312V5.53125C18.2188 5.00082 18.008 4.49211 17.633 4.11704C17.2579 3.74196 16.7492 3.53125 16.2188 3.53125H4.21875ZM16.2188 15.5312H4.21875L8.21875 7.53125L11.2188 13.5312L13.2188 9.53125L16.2188 15.5312Z" fill="black"/>
</svg>
